<?xml version="1.0" standalone="no"?><!DOCTYPE svg PUBLIC "-//W3C//DTD SVG 1.1//EN" "http://www.w3.org/Graphics/SVG/1.1/DTD/svg11.dtd"><svg t="1591237830962" class="icon" viewBox="0 0 1024 1024" version="1.1" xmlns="http://www.w3.org/2000/svg" p-id="4602" xmlns:xlink="http://www.w3.org/1999/xlink" width="200" height="200"><defs><style type="text/css"></style></defs><path d="M870.115625 728.5484375l-68.60390625-117.00703125V449.39375a258.08203125 258.08203125 0 0 0-53.79609375-151.36171875 307.66640625 307.66640625 0 0 0-139.5-104.47734375l-0.99140625-0.33046875c-4.21875-1.3359375-8.465625-2.5875-12.73359375-3.74765625v-8.240625c0-45.58359375-36.94921875-82.53984375-82.53984375-82.53984375-45.58359375 0-82.53984375 36.95625-82.53984375 82.53984375v7.5796875c-3.6421875 0.99140625-7.2703125 2.04609375-10.8703125 3.17109375l-0.703125 0.2109375a307.153125 307.153125 0 0 0-141.92578125 104.39296875 258.67265625 258.67265625 0 0 0-54.79453125 152.71875v162.1546875L147.70390625 736.7046875a47.5171875 47.5171875 0 0 0 0 48.52265625 31.33125 31.33125 0 0 0 34.565625 16.48125h205.9875a123.609375 123.609375 0 0 0 185.39296875 107.04375 123.609375 123.609375 0 0 0 61.790625-107.04375h205.99453125a36.30234375 36.30234375 0 0 0 41.1890625-40.74609375 47.25 47.25 0 0 0-12.50859375-32.4140625m-358.1015625-585.4640625a39.009375 39.009375 0 0 1 39.42421875 36.2953125 304.8328125 304.8328125 0 0 0-13.3453125-2.1796875 22.0078125 22.0078125 0 0 0-5.68828125 0l-2.34140625-0.33046875a101.79140625 101.79140625 0 0 0-37.37109375 0l-2.01796875 0.28828125a23.60390625 23.60390625 0 0 0-5.8921875 0c-4.1203125 0.5765625-8.240625 1.1953125-12.1078125 1.93359375a38.97421875 38.97421875 0 0 1 39.33984375-36.00703125m0 740.41171875a90.6328125 90.6328125 0 0 1-82.3921875-81.8296875h164.7984375a90.95625 90.95625 0 0 1-82.40625 81.8296875m329.5828125-123.01875H182.43125c-2.51015625 0 4.1203125 5.9765625 2.76328125 4.1203125a6.81328125 6.81328125 0 0 1 0-6.91875l76.29609375-130.10625c1.82109375-3.14296875 2.784375-6.7078125 2.80546875-10.34296875V449.55546875a248.625 248.625 0 0 1 167.878125-217.6875 447.1171875 447.1171875 0 0 1 52.89609375-12.3609375c1.5046875 0.16875 3.03046875 0.16875 4.53515625 0 3.3328125-0.33046875 6.46875-0.78046875 9.47109375-1.1953125a84.8671875 84.8671875 0 0 1 12.3609375-1.27265625c4.14140625 0.1125 8.27578125 0.54140625 12.35390625 1.27265625 3.01640625 0.41484375 6.13828125 0.86484375 9.5203125 1.1953125 1.37109375 0.14765625 2.75625 0.14765625 4.1203125 0a466.959375 466.959375 0 0 1 56.3625 13.471875 249.103125 249.103125 0 0 1 164.7984375 216.5765625v167.67421875c0.0140625 3.63515625 0.97734375 7.19296875 2.79140625 10.34296875l72.76640625 124.0453125c1.0125 1.74375 2.27109375 3.3328125 3.74765625 4.70390625a6.3984375 6.3984375 0 0 1 1.96875 4.78125c-0.16171875 3.49453125 5.85-0.62578125 1.7296875-0.62578125" fill="#ffffff" p-id="4603"></path></svg>