<?xml version="1.0" standalone="no"?><!DOCTYPE svg PUBLIC "-//W3C//DTD SVG 1.1//EN" "http://www.w3.org/Graphics/SVG/1.1/DTD/svg11.dtd"><svg t="1591237816304" class="icon" viewBox="0 0 1331 1024" version="1.1" xmlns="http://www.w3.org/2000/svg" p-id="3730" xmlns:xlink="http://www.w3.org/1999/xlink" width="259.9609375" height="200"><defs><style type="text/css"></style></defs><path d="M1205.067811 3.076395a126.571674 126.571674 0 0 1 123.495279 131.845493v755.914164a127.450644 127.450644 0 0 1-123.495279 131.845493H126.571674a127.450644 127.450644 0 0 1-123.495279-131.845493V133.163948a128.329614 128.329614 0 0 1 123.495279-131.845493zM111.1897 74.272961l515.955364 543.642919a54.935622 54.935622 0 0 0 38.674678 17.139914 51.859227 51.859227 0 0 0 38.674679-17.139914L1220.449785 74.272961H114.266094z m-41.311588 818.32103l363.454077-380.593991-363.454077-380.593991z m1147.055794 58.012018l-367.409442-387.625751-98.884121 105.915879a126.132189 126.132189 0 0 1-87.896995 36.037769 118.660944 118.660944 0 0 1-84.820601-39.114164l-98.444635-104.157939-368.288412 388.065236h1105.744206z m43.948497-819.2l-362.575107 380.593991 363.454077 380.593991z" fill="#ffffff" p-id="3731"></path></svg>